<?xml version="1.0" encoding="utf-8"?>
<!-- Generator: Adobe Illustrator 27.2.0, SVG Export Plug-In . SVG Version: 6.00 Build 0)  -->
<svg version="1.1" id="Слой_1" xmlns="http://www.w3.org/2000/svg" xmlns:xlink="http://www.w3.org/1999/xlink" x="0px" y="0px"
	 viewBox="0 0 40.6 26.8" style="enable-background:new 0 0 40.6 26.8;" xml:space="preserve">
<style type="text/css">
	.st0{fill:#FFFFFF;}
	.st1{fill:#FF5F00;}
	.st2{fill:#E9001B;}
	.st3{fill:#F59C1B;}
</style>
<g>
	<rect class="st0" width="40.6" height="26.8"/>
	<g>
		<rect x="16.6" y="6.6" class="st1" width="7.5" height="13.5"/>
		<path id="_Path__00000139254969747371270300000018073444786217110442_" class="st2" d="M17,13.4c0-2.6,1.2-5.1,3.3-6.8
			c-3.7-2.9-9.2-2.3-12.1,1.4s-2.3,9.2,1.4,12.1c3.1,2.5,7.5,2.5,10.6,0C18.2,18.6,17,16.1,17,13.4z"/>
		<path class="st3" d="M34.3,13.4c0,4.8-3.9,8.6-8.6,8.6c-1.9,0-3.8-0.6-5.3-1.8c3.7-2.9,4.4-8.4,1.4-12.1c-0.4-0.5-0.9-1-1.4-1.4
			c3.7-2.9,9.2-2.3,12.1,1.4C33.6,9.6,34.3,11.5,34.3,13.4z"/>
	</g>
</g>
</svg>
