<?xml version="1.0" encoding="utf-8"?>
<!-- Generator: Adobe Illustrator 27.2.0, SVG Export Plug-In . SVG Version: 6.00 Build 0)  -->
<svg version="1.1" id="Слой_1" xmlns="http://www.w3.org/2000/svg" xmlns:xlink="http://www.w3.org/1999/xlink" x="0px" y="0px"
	 viewBox="0 0 40.6 26.8" style="enable-background:new 0 0 40.6 26.8;" xml:space="preserve">
<style type="text/css">
	.st0{fill:#FFFFFF;}
	.st1{fill-rule:evenodd;clip-rule:evenodd;fill:#219E38;}
	.st2{fill-rule:evenodd;clip-rule:evenodd;fill:url(#SVGID_1_);}
</style>
<g>
	<g>
		<g>
			<rect class="st0" width="40.6" height="26.8"/>
		</g>
	</g>
	<g>
		<path id="Path_3_00000148643247487392148990000017661178501005619588_" class="st1" d="M28.2,7.4c0.5,0.6,0.9,1.3,1.2,2L20.3,16
			l-3.8-2.4v-2.9l3.8,2.4C20.3,13.1,28.2,7.4,28.2,7.4z"/>
		<linearGradient id="SVGID_1_" gradientUnits="userSpaceOnUse" x1="19.0419" y1="5.6721" x2="22.0361" y2="23.7754">
			<stop  offset="0" style="stop-color:#A1CB39"/>
			<stop  offset="7.058820e-02" style="stop-color:#A1CB39"/>
			<stop  offset="0.2588" style="stop-color:#80C35F"/>
			<stop  offset="0.9216" style="stop-color:#0FA6DE"/>
			<stop  offset="1" style="stop-color:#0FA6DE"/>
		</linearGradient>
		<path class="st2" d="M30.1,11.6L28,13.2c0,0.1,0,0.1,0,0.2c0,2.1-0.9,4-2.3,5.4l0,0c-1.4,1.4-3.3,2.3-5.4,2.3c-0.1,0-0.2,0-0.2,0
			c0,0-0.1,0-0.1,0l0,0c-2-0.1-3.7-0.9-5-2.2l0,0c-1.4-1.4-2.3-3.3-2.3-5.4c0-0.1,0-0.2,0-0.2c0,0,0-0.1,0-0.1l0,0
			c0.1-1.9,0.9-3.7,2.2-5l0,0c1.4-1.4,3.3-2.3,5.4-2.3v0c0.1,0,0.3,0,0.4,0l0,0c1.5,0.1,2.8,0.6,3.9,1.3v0l1.9-1.4
			c-1.7-1.4-3.9-2.2-6.3-2.2v0c-2.6,0-4.9,1-6.7,2.6l0,0c-2,1.8-3.3,4.4-3.3,7.3c0,0,0,0,0,0c0,0,0,0,0,0c0,0,0,0,0,0h0
			c0,2.6,1,4.9,2.6,6.7l0,0c1.8,2,4.4,3.3,7.3,3.3c0,0,0,0,0,0c0,0,0,0,0,0c0,0,0,0,0,0v0c2.6,0,4.9-1,6.7-2.6l0,0
			c2-1.8,3.3-4.5,3.3-7.4C30.3,12.8,30.2,12.2,30.1,11.6z"/>
	</g>
</g>
</svg>
