<?xml version="1.0" encoding="utf-8"?>
<!-- Generator: Adobe Illustrator 27.2.0, SVG Export Plug-In . SVG Version: 6.00 Build 0)  -->
<svg version="1.1" id="Слой_1" xmlns="http://www.w3.org/2000/svg" xmlns:xlink="http://www.w3.org/1999/xlink" x="0px" y="0px"
	 viewBox="0 0 40.6 26.8" style="enable-background:new 0 0 40.6 26.8;" xml:space="preserve">
<style type="text/css">
	.st0{fill:#FFFFFF;}
	.st1{fill:url(#SVGID_1_);}
</style>
<g>
	<g>
		<rect class="st0" width="40.6" height="26.8"/>
	</g>
	<g>
		
			<linearGradient id="SVGID_1_" gradientUnits="userSpaceOnUse" x1="-934.8912" y1="1068.8582" x2="-934.8805" y2="1068.7351" gradientTransform="matrix(256 0 0 82.6684 239350.3438 -88342.2188)">
			<stop  offset="0" style="stop-color:#222357"/>
			<stop  offset="1" style="stop-color:#254AA3"/>
		</linearGradient>
		<path class="st1" d="M20.1,11.6c0,1.4,1.2,2.2,2.2,2.6c1,0.5,1.3,0.8,1.3,1.2c0,0.6-0.8,0.9-1.5,0.9c-1.3,0-2-0.3-2.6-0.6
			l-0.5,2.1c0.6,0.3,1.7,0.5,2.8,0.5c2.6,0,4.3-1.3,4.3-3.3c0-2.5-3.5-2.7-3.5-3.8c0-0.3,0.3-0.7,1.1-0.8c0.4,0,1.3-0.1,2.5,0.4
			l0.4-2c-0.6-0.2-1.4-0.4-2.3-0.4C21.8,8.4,20.1,9.7,20.1,11.6 M30.8,8.6c-0.5,0-0.9,0.3-1.1,0.7L26,18.3h2.6l0.5-1.4h3.2l0.3,1.4
			H35l-2-9.6H30.8 M31.2,11.2l0.8,3.6h-2.1L31.2,11.2 M16.9,8.6l-2.1,9.6h2.5l2.1-9.6H16.9 M13.2,8.6l-2.6,6.6L9.6,9.6
			C9.5,9,9,8.6,8.4,8.6H4.2L4.1,8.9C5,9.1,6,9.4,6.6,9.7c0.4,0.2,0.5,0.4,0.6,0.8l2,7.7h2.6l4-9.6H13.2"/>
	</g>
</g>
</svg>
